<svg width="16" height="16" viewBox="0 0 16 16" fill="none" xmlns="http://www.w3.org/2000/svg">
<path d="M6 10C6 8.11438 6 7.17157 6.58579 6.58579C7.17157 6 8.11438 6 10 6L10.6667 6C12.5523 6 13.4951 6 14.0809 6.58579C14.6667 7.17157 14.6667 8.11438 14.6667 10V10.6667C14.6667 12.5523 14.6667 13.4951 14.0809 14.0809C13.4951 14.6667 12.5523 14.6667 10.6667 14.6667H10C8.11438 14.6667 7.17157 14.6667 6.58579 14.0809C6 13.4951 6 12.5523 6 10.6667L6 10Z" stroke="#9A4C86" stroke-width="1.5" stroke-linecap="round" stroke-linejoin="round"/>
<path d="M11.3329 6.00065C11.3314 4.02926 11.3015 3.00812 10.7277 2.30894C10.6169 2.17391 10.4931 2.0501 10.3581 1.93929C9.62049 1.33398 8.52466 1.33398 6.33301 1.33398C4.14135 1.33398 3.04553 1.33398 2.30796 1.93929C2.17294 2.0501 2.04913 2.17391 1.93831 2.30894C1.33301 3.0465 1.33301 4.14233 1.33301 6.33398C1.33301 8.52564 1.33301 9.62146 1.93831 10.359C2.04912 10.4941 2.17293 10.6179 2.30796 10.7287C3.00715 11.3025 4.02828 11.3323 5.99967 11.3339" stroke="#9A4C86" stroke-width="1.5" stroke-linecap="round" stroke-linejoin="round"/>
</svg>
