<svg width="16" height="17" viewBox="0 0 16 17" fill="none" xmlns="http://www.w3.org/2000/svg">
<path d="M5.97416 13.4974L6.43848 12.9084L5.97416 13.4974ZM7.99967 4.55723L7.45931 5.07733C7.60069 5.22422 7.79579 5.30723 7.99967 5.30723C8.20356 5.30723 8.39865 5.22422 8.54004 5.07733L7.99967 4.55723ZM10.0252 13.4974L10.4895 14.0864L10.0252 13.4974ZM5.97416 13.4974L6.43848 12.9084C5.4132 12.1002 4.33603 11.3426 3.47879 10.3773C2.64727 9.44099 2.08301 8.36845 2.08301 6.98153H1.33301H0.583008C0.583008 8.83658 1.35855 10.2488 2.35722 11.3733C3.33018 12.4689 4.57358 13.3483 5.50985 14.0864L5.97416 13.4974ZM1.33301 6.98153H2.08301C2.08301 5.64116 2.84003 4.53008 3.85318 4.06697C4.81905 3.62547 6.15131 3.71836 7.45931 5.07733L7.99967 4.55723L8.54004 4.03712C6.84815 2.27931 4.84707 1.96338 3.22958 2.70274C1.65937 3.42049 0.583008 5.07996 0.583008 6.98153H1.33301ZM5.97416 13.4974L5.50985 14.0864C5.84904 14.3538 6.22907 14.6519 6.61809 14.8793C7.00687 15.1064 7.47594 15.3068 7.99967 15.3068V14.5568V13.8068C7.85674 13.8068 7.65915 13.7503 7.37488 13.5842C7.09085 13.4182 6.79146 13.1867 6.43848 12.9084L5.97416 13.4974ZM10.0252 13.4974L10.4895 14.0864C11.4258 13.3483 12.6692 12.4689 13.6421 11.3733C14.6408 10.2488 15.4163 8.83658 15.4163 6.98153H14.6663H13.9163C13.9163 8.36845 13.3521 9.44099 12.5206 10.3773C11.6633 11.3426 10.5861 12.1002 9.56087 12.9084L10.0252 13.4974ZM14.6663 6.98153H15.4163C15.4163 5.07996 14.34 3.42049 12.7698 2.70274C11.1523 1.96338 9.1512 2.27931 7.45931 4.03712L7.99967 4.55723L8.54004 5.07733C9.84804 3.71836 11.1803 3.62547 12.1462 4.06697C13.1593 4.53008 13.9163 5.64116 13.9163 6.98153H14.6663ZM10.0252 13.4974L9.56087 12.9084C9.20788 13.1867 8.9085 13.4182 8.62447 13.5842C8.3402 13.7503 8.14261 13.8068 7.99967 13.8068V14.5568V15.3068C8.52341 15.3068 8.99248 15.1064 9.38126 14.8793C9.77027 14.6519 10.1503 14.3538 10.4895 14.0864L10.0252 13.4974Z" fill="#9A4C86"/>
</svg>
