<svg width="18" height="23" viewBox="0 0 18 23" fill="none" xmlns="http://www.w3.org/2000/svg">
<path d="M15 17.5C16.2447 17.9244 17 18.4819 17 19.0925C17 20.4221 13.4183 21.5 9 21.5C4.58172 21.5 1 20.4221 1 19.0925C1 18.4819 1.75527 17.9244 3 17.5" stroke="#F042C5" stroke-width="1.5" stroke-linecap="round"/>
<path d="M12 9C12 10.6569 10.6569 12 9 12C7.34315 12 6 10.6569 6 9C6 7.34315 7.34315 6 9 6C10.6569 6 12 7.34315 12 9Z" stroke="#F042C5" stroke-width="1.5"/>
<path d="M9 1.5C13.0588 1.5 16.5 4.92803 16.5 9.0869C16.5 13.312 13.0028 16.277 9.7725 18.2932C9.53709 18.4287 9.27087 18.5 9 18.5C8.72913 18.5 8.46291 18.4287 8.2275 18.2932C5.00325 16.2573 1.5 13.3266 1.5 9.0869C1.5 4.92803 4.9412 1.5 9 1.5Z" stroke="#F042C5" stroke-width="1.5"/>
</svg>
