<svg width="246" height="28" viewBox="0 0 246 28" fill="none" xmlns="http://www.w3.org/2000/svg">
<mask id="mask0_348_11271" style="mask-type:luminance" maskUnits="userSpaceOnUse" x="0" y="0" width="246" height="28">
<path d="M0 0H246V27.9479H0V0Z" fill="white"/>
</mask>
<g mask="url(#mask0_348_11271)">
<path d="M228.986 15.8751C229.43 16.2761 230.085 16.2709 230.579 16.4324C234.765 17.7449 238.993 19.0261 243.288 20.2188C243.817 20.3646 244.32 20.5417 244.731 20.8126C245.579 21.3699 245.52 22.0521 244.538 22.5261C243.767 22.8959 242.852 23.1094 241.921 23.2761C235.537 24.4584 229.128 25.5626 222.585 26.3699C218.592 26.8542 214.599 27.1511 210.539 27.3074C207.963 27.4063 205.413 27.4167 202.838 27.4428C202.108 27.4532 201.403 27.5417 200.69 27.6094C199.365 27.724 198.904 27.5053 198.719 26.6876C198.551 25.948 198.266 25.2032 198.4 24.448C198.509 23.8855 198.04 23.7761 197.285 23.8334C196.286 23.9115 195.263 23.9532 194.265 24.0417C191.203 24.3074 188.099 24.2709 185.037 24.5209C183.745 24.6251 182.428 24.6303 181.136 24.6771C179.106 24.7501 177.076 24.8542 175.054 24.948C171.204 25.1459 167.328 25.1459 163.486 25.4219C163.058 25.4532 162.614 25.4428 162.186 25.4376C158.151 25.3751 154.141 25.6042 150.123 25.6824C147.22 25.7396 144.31 25.7084 141.415 25.8386C134.822 26.1303 128.22 26.0313 121.635 25.9324C117.617 25.8751 113.582 25.9219 109.572 25.7709C105.998 25.6355 102.425 25.5834 98.851 25.4271C95.0509 25.2657 91.2424 25.1094 87.4423 24.8699C84.221 24.6719 80.9829 24.5521 77.7784 24.3334C74.0454 24.073 70.2873 23.9324 66.5459 23.6876C64.1551 23.5209 61.7475 23.3959 59.34 23.2501C56.9408 23.1094 54.5416 23.0001 52.1508 22.7761C50.0117 22.5834 47.8222 22.5209 45.6747 22.3646C44.8778 22.3021 44.5087 22.474 44.3912 22.9376C44.1647 23.8542 43.7537 24.7553 43.6782 25.6876C43.6111 26.6042 43.4265 26.7188 41.9249 26.9271C41.5894 26.974 41.2706 27.0365 40.9351 27.0521C36.1451 27.2813 31.3383 27.349 26.5484 27.224C22.4966 27.1199 18.4448 26.9324 14.4015 26.6876C11.4822 26.5053 8.58806 26.1511 5.68555 25.8803C4.53629 25.7813 3.38703 25.7084 2.23778 25.6303C1.80995 25.6042 1.37374 25.6251 0.971076 25.4949C0.467752 25.3334 0.0483137 25.1355 0.0063705 24.7657C-0.0439631 24.3855 0.341921 24.1407 0.853634 24.0053C2.39716 23.5834 3.96586 23.1719 5.51778 22.7605C8.42028 21.9949 11.2137 21.0834 13.9485 20.1146C14.1162 20.0574 14.2505 19.9584 14.4182 19.9011C14.9467 19.7292 14.8125 19.5469 14.477 19.3438C13.7555 18.8959 13.0509 18.4324 12.3294 17.9896C9.3766 16.1511 6.43215 14.323 3.30315 12.599C2.54816 12.1771 1.78478 11.7657 1.01302 11.3542C0.459362 11.0626 0.0483153 10.7084 0.333532 10.2553C0.610362 9.80215 1.31501 9.73965 2.01128 9.69798C5.63522 9.47402 9.26755 9.51569 12.8999 9.51048C16.3896 9.51048 19.8625 9.25006 23.3606 9.3334C23.7046 9.33861 24.0317 9.23444 24.3589 9.22402C25.1978 9.19277 25.3236 8.91152 25.3236 8.45319C25.3572 6.16152 25.7766 3.88548 25.6424 1.59902C25.6004 0.880273 26.0283 0.661521 27.2446 0.651105C28.8972 0.651105 30.5162 0.890688 32.1101 1.08861C35.5159 1.51048 38.9553 1.80735 42.3779 2.13027C45.9851 2.47402 49.609 2.49486 53.233 2.47402C54.9778 2.46881 56.7143 2.62506 58.4508 2.61986C65.2373 2.61986 72.0405 2.54694 78.8103 2.41152C89.6401 2.18756 100.462 2.26569 111.275 2.34381C115.15 2.36986 119.034 2.32819 122.893 2.50006C128.27 2.73965 133.656 2.5209 139.033 2.68236C147.623 2.94798 156.213 2.81256 164.795 2.7709C168.712 2.75527 172.647 2.72923 176.564 2.59902C178.787 2.52611 181.019 2.54173 183.233 2.43756C186.312 2.28652 189.424 2.26569 192.495 2.06777C196.806 1.78131 201.135 1.63027 205.438 1.23444C208.249 0.979231 211.101 0.885481 213.928 0.66673C214.851 0.593814 215.715 0.427147 216.612 0.317772C218.189 0.119855 218.777 0.437564 218.475 1.40631C218.24 2.12506 218.248 2.83861 218.265 3.55736C218.273 5.2084 218.063 6.85944 217.736 8.49486C217.669 8.90111 217.921 8.94277 218.441 8.96881C219.288 9.0209 220.068 8.81256 220.882 8.80736C224.942 8.75527 228.986 8.40111 233.054 8.39069C234.497 8.39069 235.948 8.25527 237.4 8.2709C237.785 8.2709 238.18 8.27611 238.549 8.3334C240.042 8.56256 240.445 9.15111 239.572 9.92715C238.8 10.6146 237.735 11.1459 236.787 11.7396C234.38 13.2292 231.561 14.4115 228.986 15.8751Z" fill="#FEE5EC"/>
<path d="M228.986 15.8751C229.43 16.2761 230.085 16.2709 230.579 16.4324C234.765 17.7449 238.993 19.0261 243.288 20.2188C243.817 20.3646 244.32 20.5417 244.731 20.8126C245.579 21.3699 245.52 22.0521 244.538 22.5261C243.767 22.8959 242.852 23.1094 241.921 23.2761C235.537 24.4584 229.128 25.5626 222.585 26.3699C218.592 26.8542 214.599 27.1511 210.539 27.3074C207.963 27.4063 205.413 27.4167 202.838 27.4428C202.108 27.4532 201.403 27.5417 200.69 27.6094C199.365 27.724 198.904 27.5053 198.719 26.6876C198.551 25.948 198.266 25.2032 198.4 24.448C198.509 23.8855 198.04 23.7761 197.285 23.8334C196.286 23.9115 195.263 23.9532 194.265 24.0417C191.203 24.3074 188.099 24.2709 185.037 24.5209C183.745 24.6251 182.428 24.6303 181.136 24.6771C179.106 24.7501 177.076 24.8542 175.054 24.948C171.204 25.1459 167.328 25.1459 163.486 25.4219C163.058 25.4532 162.614 25.4428 162.186 25.4376C158.151 25.3751 154.141 25.6042 150.123 25.6824C147.22 25.7396 144.31 25.7084 141.415 25.8386C134.822 26.1303 128.22 26.0313 121.635 25.9324C117.617 25.8751 113.582 25.9219 109.572 25.7709C105.998 25.6355 102.425 25.5834 98.851 25.4271C95.0509 25.2657 91.2424 25.1094 87.4423 24.8699C84.221 24.6719 80.9829 24.5521 77.7784 24.3334C74.0454 24.073 70.2873 23.9324 66.5459 23.6876C64.1551 23.5209 61.7475 23.3959 59.34 23.2501C56.9408 23.1094 54.5416 23.0001 52.1508 22.7761C50.0117 22.5834 47.8222 22.5209 45.6747 22.3646C44.8778 22.3021 44.5087 22.474 44.3912 22.9376C44.1647 23.8542 43.7537 24.7553 43.6782 25.6876C43.6111 26.6042 43.4265 26.7188 41.9249 26.9271C41.5894 26.974 41.2706 27.0365 40.9351 27.0521C36.1451 27.2813 31.3383 27.349 26.5484 27.224C22.4966 27.1199 18.4448 26.9324 14.4015 26.6876C11.4822 26.5053 8.58806 26.1511 5.68555 25.8803C4.53629 25.7813 3.38703 25.7084 2.23778 25.6303C1.80995 25.6042 1.37374 25.6251 0.971076 25.4949C0.467752 25.3334 0.0483137 25.1355 0.0063705 24.7657C-0.0439631 24.3855 0.341921 24.1407 0.853634 24.0053C2.39716 23.5834 3.96586 23.1719 5.51778 22.7605C8.42028 21.9949 11.2137 21.0834 13.9485 20.1146C14.1162 20.0574 14.2505 19.9584 14.4182 19.9011C14.9467 19.7292 14.8125 19.5469 14.477 19.3438C13.7555 18.8959 13.0509 18.4324 12.3294 17.9896C9.3766 16.1511 6.43215 14.323 3.30315 12.599C2.54816 12.1771 1.78478 11.7657 1.01302 11.3542C0.459362 11.0626 0.0483153 10.7084 0.333532 10.2553C0.610362 9.80215 1.31501 9.73965 2.01128 9.69798C5.63522 9.47402 9.26755 9.51569 12.8999 9.51048C16.3896 9.51048 19.8625 9.25006 23.3606 9.3334C23.7046 9.33861 24.0317 9.23444 24.3589 9.22402C25.1978 9.19277 25.3236 8.91152 25.3236 8.45319C25.3572 6.16152 25.7766 3.88548 25.6424 1.59902C25.6004 0.880273 26.0283 0.661521 27.2446 0.651105C28.8972 0.651105 30.5162 0.890688 32.1101 1.08861C35.5159 1.51048 38.9553 1.80735 42.3779 2.13027C45.9851 2.47402 49.609 2.49486 53.233 2.47402C54.9778 2.46881 56.7143 2.62506 58.4508 2.61986C65.2373 2.61986 72.0405 2.54694 78.8103 2.41152C89.6401 2.18756 100.462 2.26569 111.275 2.34381C115.15 2.36986 119.034 2.32819 122.893 2.50006C128.27 2.73965 133.656 2.5209 139.033 2.68236C147.623 2.94798 156.213 2.81256 164.795 2.7709C168.712 2.75527 172.647 2.72923 176.564 2.59902C178.787 2.52611 181.019 2.54173 183.233 2.43756C186.312 2.28652 189.424 2.26569 192.495 2.06777C196.806 1.78131 201.135 1.63027 205.438 1.23444C208.249 0.979231 211.101 0.885481 213.928 0.66673C214.851 0.593814 215.715 0.427147 216.612 0.317772C218.189 0.119855 218.777 0.437564 218.475 1.40631C218.24 2.12506 218.248 2.83861 218.265 3.55736C218.273 5.2084 218.063 6.85944 217.736 8.49486C217.669 8.90111 217.921 8.94277 218.441 8.96881C219.288 9.0209 220.068 8.81256 220.882 8.80736C224.942 8.75527 228.986 8.40111 233.054 8.39069C234.497 8.39069 235.948 8.25527 237.4 8.2709C237.785 8.2709 238.18 8.27611 238.549 8.3334C240.042 8.56256 240.445 9.15111 239.572 9.92715C238.8 10.6146 237.735 11.1459 236.787 11.7396C234.38 13.2292 231.561 14.4115 228.986 15.8751Z" fill="#FEE5EC"/>
</g>
</svg>
