<svg width="16" height="14" viewBox="0 0 16 14" fill="none" xmlns="http://www.w3.org/2000/svg">
<path d="M12.4104 12.334H12.7372C13.5038 12.334 14.1135 11.9847 14.6609 11.4964C16.0517 10.2557 12.7824 9.00065 11.6663 9.00065M10.333 2.37983C10.4844 2.3498 10.6416 2.33398 10.8028 2.33398C12.0161 2.33398 12.9997 3.22941 12.9997 4.33398C12.9997 5.43855 12.0161 6.33398 10.8028 6.33398C10.6416 6.33398 10.4844 6.31817 10.333 6.28814" stroke="#9A4C86" stroke-width="1.5" stroke-linecap="round"/>
<path d="M2.98754 9.74144C2.20156 10.1627 0.140758 11.0227 1.39592 12.0989C2.00906 12.6247 2.69194 13.0007 3.55048 13.0007H8.44952C9.30806 13.0007 9.99094 12.6247 10.6041 12.0989C11.8592 11.0227 9.79844 10.1627 9.01246 9.74144C7.16934 8.75372 4.83066 8.75372 2.98754 9.74144Z" stroke="#9A4C86" stroke-width="1.5"/>
<path d="M8.66667 4.00065C8.66667 5.47341 7.47276 6.66732 6 6.66732C4.52724 6.66732 3.33333 5.47341 3.33333 4.00065C3.33333 2.52789 4.52724 1.33398 6 1.33398C7.47276 1.33398 8.66667 2.52789 8.66667 4.00065Z" stroke="#9A4C86" stroke-width="1.5"/>
</svg>
